<mxfile host="app.diagrams.net" modified="2023-10-11T01:40:12.144Z" agent="Mozilla/5.0 (Windows NT 10.0; Win64; x64) AppleWebKit/537.36 (KHTML, like Gecko) Chrome/117.0.0.0 Safari/537.36" version="21.6.6" etag="9BRl4WryjFQC4J9OYj95" type="device">
  <diagram id="U1Mgtu1GWtXRfWW_HX2o" name="페이지-1">
    <mxGraphModel dx="1434" dy="733" grid="1" gridSize="10" guides="1" tooltips="1" connect="1" arrows="1" fold="1" page="1" pageScale="1" pageWidth="827" pageHeight="1169" background="#FFFFFF" math="0" shadow="0">
      <root>
        <mxCell id="0" />
        <mxCell id="1" parent="0" />
        <mxCell id="2" style="shape=folder;fontStyle=1;spacingTop=10;tabWidth=40;tabHeight=14;tabPosition=left;shadow=1;strokeWidth=2;fillColor=#FFFFFF;strokeColor=#000000;opacity=100.0;gliffyId=568;" parent="1" vertex="1">
          <mxGeometry x="4390" y="207.3787078857422" width="140" height="75" as="geometry" />
        </mxCell>
        <mxCell id="3" style="shape=rect;shadow=1;strokeWidth=2;fillColor=#FFFFFF;strokeColor=#000000;opacity=100.0;gliffyId=569;" parent="2" vertex="1">
          <mxGeometry width="56" height="10" as="geometry" />
        </mxCell>
        <mxCell id="4" value="&lt;div style=&#39;width: 137.0px;height:auto;word-break: break-word;&#39;&gt;&lt;div align=&quot;center&quot;&gt;&lt;span style=&quot;font-size: 12px; font-family: Arial; white-space: pre-wrap; font-weight: bold; text-decoration: none; line-height: 14px; color: rgb(0, 0, 0);&quot;&gt;유니티 물리적 파일구조 &lt;/span&gt;&lt;/div&gt;&lt;div align=&quot;center&quot;&gt;&lt;span style=&quot;font-size: 12px; font-family: Arial; white-space: pre-wrap; font-weight: bold; text-decoration: none; line-height: 14px; color: rgb(0, 0, 0);&quot;&gt;Asset&lt;/span&gt;&lt;/div&gt;&lt;/div&gt;" style="shape=rect;shadow=1;strokeWidth=2;fillColor=#FFFFFF;strokeColor=#000000;opacity=100.0;html=1;nl2Br=0;verticalAlign=middle;align=center;spacingLeft=0.0;spacingRight=0;whiteSpace=wrap;gliffyId=570;" parent="2" vertex="1">
          <mxGeometry y="10" width="140" height="65" as="geometry" />
        </mxCell>
        <mxCell id="5" style="shape=folder;fontStyle=1;spacingTop=10;tabWidth=40;tabHeight=14;tabPosition=left;shadow=1;strokeWidth=2;fillColor=#FFFFFF;strokeColor=#000000;opacity=100.0;gliffyId=559;" parent="1" vertex="1">
          <mxGeometry x="4570" y="294.8786926269531" width="90" height="50" as="geometry" />
        </mxCell>
        <mxCell id="6" style="shape=rect;shadow=1;strokeWidth=2;fillColor=#FFFFFF;strokeColor=#000000;opacity=100.0;gliffyId=560;" parent="5" vertex="1">
          <mxGeometry width="36" height="10" as="geometry" />
        </mxCell>
        <mxCell id="7" value="&lt;div style=&#39;width: 87.0px;height:auto;word-break: break-word;&#39;&gt;&lt;div align=&quot;center&quot;&gt;&lt;span style=&quot;font-size: 12px; font-family: Arial; white-space: pre-wrap; font-weight: bold; text-decoration: none; line-height: 14px; color: rgb(0, 0, 0);&quot;&gt;Scripts&lt;/span&gt;&lt;/div&gt;&lt;/div&gt;" style="shape=rect;shadow=1;strokeWidth=2;fillColor=#FFFFFF;strokeColor=#000000;opacity=100.0;html=1;nl2Br=0;verticalAlign=middle;align=center;spacingLeft=0.0;spacingRight=0;whiteSpace=wrap;gliffyId=561;" parent="5" vertex="1">
          <mxGeometry y="10" width="90" height="40" as="geometry" />
        </mxCell>
        <mxCell id="8" style="shape=filledEdge;strokeWidth=2;strokeColor=#000000;fillColor=none;startArrow=none;startFill=0;startSize=6;endArrow=none;endFill=0;endSize=6;rounded=0;gliffyId=558;exitX=0.0;exitY=0.5;exitPerimeter=0;entryX=1.0;entryY=0.5;entryPerimeter=0;" parent="1" source="5" target="2" edge="1">
          <mxGeometry width="100" height="100" relative="1" as="geometry">
            <Array as="points">
              <mxPoint x="4570" y="319.87872314453125" />
              <mxPoint x="4530" y="244.8787078857422" />
            </Array>
          </mxGeometry>
        </mxCell>
        <mxCell id="9" style="shape=folder;fontStyle=1;spacingTop=10;tabWidth=40;tabHeight=14;tabPosition=left;shadow=1;strokeWidth=2;fillColor=#FFFFFF;strokeColor=#000000;opacity=100.0;gliffyId=535;" parent="1" vertex="1">
          <mxGeometry x="4689.2939453125" y="244.8787078857422" width="90" height="50" as="geometry" />
        </mxCell>
        <mxCell id="10" style="shape=rect;shadow=1;strokeWidth=2;fillColor=#FFFFFF;strokeColor=#000000;opacity=100.0;gliffyId=536;" parent="9" vertex="1">
          <mxGeometry width="36" height="10" as="geometry" />
        </mxCell>
        <mxCell id="11" value="&lt;div style=&#39;width: 87.0px;height:auto;word-break: break-word;&#39;&gt;&lt;div align=&quot;center&quot;&gt;&lt;span style=&quot;font-size: 12px; font-family: Arial; white-space: pre-wrap; font-weight: bold; text-decoration: none; line-height: 14px; color: rgb(0, 0, 0);&quot;&gt;Format&lt;/span&gt;&lt;/div&gt;&lt;/div&gt;" style="shape=rect;shadow=1;strokeWidth=2;fillColor=#FFFFFF;strokeColor=#000000;opacity=100.0;html=1;nl2Br=0;verticalAlign=middle;align=center;spacingLeft=0.0;spacingRight=0;whiteSpace=wrap;gliffyId=537;" parent="9" vertex="1">
          <mxGeometry y="10" width="90" height="40" as="geometry" />
        </mxCell>
        <mxCell id="12" style="shape=filledEdge;strokeWidth=2;strokeColor=#000000;fillColor=none;startArrow=none;startFill=0;startSize=6;endArrow=none;endFill=0;endSize=6;rounded=0;gliffyId=534;exitX=0.0;exitY=0.5;exitPerimeter=0;entryX=1.0;entryY=0.5;entryPerimeter=0;" parent="1" source="9" target="5" edge="1">
          <mxGeometry width="100" height="100" relative="1" as="geometry">
            <Array as="points">
              <mxPoint x="4689.29345703125" y="269.87872314453125" />
              <mxPoint x="4660" y="319.87872314453125" />
            </Array>
          </mxGeometry>
        </mxCell>
        <mxCell id="13" value="&lt;div style=&#39;width: 133.5px;height:auto;word-break: break-word;&#39;&gt;&lt;div align=&quot;center&quot;&gt;&lt;span style=&quot;font-size: 12px; font-family: Arial; white-space: pre-wrap; font-weight: bold; text-decoration: none; line-height: 14px; color: rgb(0, 0, 0);&quot;&gt;GalleryDataContent.cs &lt;/span&gt;&lt;/div&gt;&lt;div align=&quot;center&quot;&gt;&lt;span style=&quot;font-size: 12px; font-family: Arial; white-space: pre-wrap; font-weight: bold; text-decoration: none; line-height: 14px; color: rgb(0, 0, 0);&quot;&gt;GalleryDataTag.cs &lt;/span&gt;&lt;/div&gt;&lt;div align=&quot;center&quot;&gt;&lt;span style=&quot;font-size: 12px; font-family: Arial; white-space: pre-wrap; font-weight: bold; text-decoration: none; line-height: 14px; color: rgb(0, 0, 0);&quot;&gt;GalleryData.cs&lt;/span&gt;&lt;/div&gt;&lt;/div&gt;" style="shape=note;size=10;shadow=0;strokeWidth=1;fillColor=#FFFFFF;strokeColor=#000000;opacity=100.0;html=1;nl2Br=0;verticalAlign=middle;align=center;spacingLeft=1.75;spacingRight=0;whiteSpace=wrap;gliffyId=532;" parent="1" vertex="1">
          <mxGeometry x="4801.9775390625" y="244.8787078857422" width="140" height="50" as="geometry" />
        </mxCell>
        <mxCell id="14" style="shape=filledEdge;strokeWidth=2;strokeColor=#000000;fillColor=none;startArrow=none;startFill=0;startSize=6;endArrow=none;endFill=0;endSize=6;rounded=0;gliffyId=531;edgeStyle=orthogonalEdgeStyle;" parent="1" source="9" target="13" edge="1">
          <mxGeometry width="100" height="100" relative="1" as="geometry">
            <Array as="points">
              <mxPoint x="4779.2939453125" y="269.8786926269531" />
              <mxPoint x="4801.9775390625" y="269.8786926269531" />
            </Array>
          </mxGeometry>
        </mxCell>
        <mxCell id="15" style="shape=folder;fontStyle=1;spacingTop=10;tabWidth=40;tabHeight=14;tabPosition=left;shadow=1;strokeWidth=2;fillColor=#FFFFFF;strokeColor=#000000;opacity=100.0;gliffyId=522;" parent="1" vertex="1">
          <mxGeometry x="4570" y="160.8162078857422" width="90" height="46.5625" as="geometry" />
        </mxCell>
        <mxCell id="16" style="shape=rect;shadow=1;strokeWidth=2;fillColor=#FFFFFF;strokeColor=#000000;opacity=100.0;gliffyId=523;" parent="15" vertex="1">
          <mxGeometry width="36" height="10" as="geometry" />
        </mxCell>
        <mxCell id="17" value="&lt;div style=&#39;width: 87.0px;height:auto;word-break: break-word;&#39;&gt;&lt;div align=&quot;center&quot;&gt;&lt;span style=&quot;font-size: 12px; font-family: Arial; white-space: pre-wrap; font-weight: bold; text-decoration: none; line-height: 14px; color: rgb(0, 0, 0);&quot;&gt;DataBase&lt;/span&gt;&lt;/div&gt;&lt;/div&gt;" style="shape=rect;shadow=1;strokeWidth=2;fillColor=#FFFFFF;strokeColor=#000000;opacity=100.0;html=1;nl2Br=0;verticalAlign=middle;align=center;spacingLeft=0.0;spacingRight=0;whiteSpace=wrap;gliffyId=524;" parent="15" vertex="1">
          <mxGeometry y="10" width="90" height="36.5625" as="geometry" />
        </mxCell>
        <mxCell id="18" style="shape=filledEdge;strokeWidth=2;strokeColor=#000000;fillColor=none;startArrow=none;startFill=0;startSize=6;endArrow=none;endFill=0;endSize=6;rounded=0;gliffyId=521;exitX=1.0;exitY=0.5;exitPerimeter=0;entryX=0.0;entryY=0.5;entryPerimeter=0;" parent="1" source="2" target="15" edge="1">
          <mxGeometry width="100" height="100" relative="1" as="geometry">
            <Array as="points">
              <mxPoint x="4530" y="244.8787078857422" />
              <mxPoint x="4570" y="184.0974578857422" />
            </Array>
          </mxGeometry>
        </mxCell>
        <mxCell id="19" value="&lt;div style=&#39;width: 124.11562px;height:auto;word-break: break-word;&#39;&gt;&lt;div align=&quot;center&quot;&gt;&lt;span style=&quot;font-size: 12px; font-family: Arial; white-space: pre-wrap; font-weight: bold; text-decoration: none; line-height: 14px; color: rgb(0, 0, 0);&quot;&gt;Gallery List &lt;/span&gt;&lt;/div&gt;&lt;div align=&quot;center&quot;&gt;&lt;span style=&quot;font-size: 12px; font-family: Arial; white-space: pre-wrap; font-weight: bold; text-decoration: none; line-height: 14px; color: rgb(0, 0, 0);&quot;&gt;Gallery Contents&lt;/span&gt;&lt;/div&gt;&lt;/div&gt;" style="shape=note;size=10;shadow=0;strokeWidth=1;fillColor=#FFFFFF;strokeColor=#000000;opacity=100.0;html=1;nl2Br=0;verticalAlign=middle;align=center;spacingLeft=1.6296875;spacingRight=0;whiteSpace=wrap;gliffyId=510;" parent="1" vertex="1">
          <mxGeometry x="4810" y="86.5625" width="130.375" height="40" as="geometry" />
        </mxCell>
        <mxCell id="20" style="shape=filledEdge;strokeWidth=2;strokeColor=#000000;fillColor=none;startArrow=none;startFill=0;startSize=6;endArrow=none;endFill=0;endSize=6;rounded=0;gliffyId=509;exitX=1.0;exitY=0.5;exitPerimeter=0;entryX=0.0;entryY=0.5;entryPerimeter=0;" parent="1" source="21" target="19" edge="1">
          <mxGeometry width="100" height="100" relative="1" as="geometry">
            <Array as="points">
              <mxPoint x="4781.9443359375" y="103.28125" />
              <mxPoint x="4810" y="106.5625" />
            </Array>
          </mxGeometry>
        </mxCell>
        <mxCell id="21" style="shape=folder;fontStyle=1;spacingTop=10;tabWidth=40;tabHeight=14;tabPosition=left;shadow=1;strokeWidth=2;fillColor=#FFFFFF;strokeColor=#000000;opacity=100.0;gliffyId=471;" parent="1" vertex="1">
          <mxGeometry x="4691.9443359375" y="80" width="90" height="46.5625" as="geometry" />
        </mxCell>
        <mxCell id="22" style="shape=rect;shadow=1;strokeWidth=2;fillColor=#FFFFFF;strokeColor=#000000;opacity=100.0;gliffyId=472;" parent="21" vertex="1">
          <mxGeometry width="36" height="10" as="geometry" />
        </mxCell>
        <mxCell id="23" value="&lt;div style=&#39;width: 87.0px;height:auto;word-break: break-word;&#39;&gt;&lt;div align=&quot;center&quot;&gt;&lt;span style=&quot;font-size: 12px; font-family: Arial; white-space: pre-wrap; font-weight: bold; text-decoration: none; line-height: 14px; color: rgb(0, 0, 0);&quot;&gt;System&lt;/span&gt;&lt;/div&gt;&lt;/div&gt;" style="shape=rect;shadow=1;strokeWidth=2;fillColor=#FFFFFF;strokeColor=#000000;opacity=100.0;html=1;nl2Br=0;verticalAlign=middle;align=center;spacingLeft=0.0;spacingRight=0;whiteSpace=wrap;gliffyId=473;" parent="21" vertex="1">
          <mxGeometry y="10" width="90" height="36.5625" as="geometry" />
        </mxCell>
        <mxCell id="24" style="shape=filledEdge;strokeWidth=2;strokeColor=#000000;fillColor=none;startArrow=none;startFill=0;startSize=6;endArrow=none;endFill=0;endSize=6;rounded=0;gliffyId=470;exitX=0.0;exitY=0.5;exitPerimeter=0;entryX=1.0;entryY=0.5;entryPerimeter=0;" parent="1" source="21" target="15" edge="1">
          <mxGeometry width="100" height="100" relative="1" as="geometry">
            <Array as="points">
              <mxPoint x="4691.94384765625" y="103.28125" />
              <mxPoint x="4660" y="184.0974578857422" />
            </Array>
          </mxGeometry>
        </mxCell>
        <mxCell id="25" style="shape=folder;fontStyle=1;spacingTop=10;tabWidth=40;tabHeight=14;tabPosition=left;shadow=1;strokeWidth=2;fillColor=#FFFFFF;strokeColor=#000000;opacity=100.0;gliffyId=1736;" parent="1" vertex="1">
          <mxGeometry x="4691.9443359375" y="160.8162078857422" width="90" height="46.5625" as="geometry" />
        </mxCell>
        <mxCell id="26" style="shape=rect;shadow=1;strokeWidth=2;fillColor=#FFFFFF;strokeColor=#000000;opacity=100.0;gliffyId=1737;" parent="25" vertex="1">
          <mxGeometry width="36" height="10" as="geometry" />
        </mxCell>
        <mxCell id="27" value="&lt;div style=&#39;width: 87.0px;height:auto;word-break: break-word;&#39;&gt;&lt;div align=&quot;center&quot;&gt;&lt;span style=&quot;font-size: 12px; font-family: Arial; white-space: pre-wrap; font-weight: bold; text-decoration: none; line-height: 14px; color: rgb(0, 0, 0);&quot;&gt;Gallery&lt;/span&gt;&lt;/div&gt;&lt;/div&gt;" style="shape=rect;shadow=1;strokeWidth=2;fillColor=#FFFFFF;strokeColor=#000000;opacity=100.0;html=1;nl2Br=0;verticalAlign=middle;align=center;spacingLeft=0.0;spacingRight=0;whiteSpace=wrap;gliffyId=1738;" parent="25" vertex="1">
          <mxGeometry y="10" width="90" height="36.5625" as="geometry" />
        </mxCell>
        <mxCell id="28" style="shape=filledEdge;strokeWidth=2;strokeColor=#000000;fillColor=none;startArrow=none;startFill=0;startSize=6;endArrow=none;endFill=0;endSize=6;rounded=0;gliffyId=1745;edgeStyle=orthogonalEdgeStyle;" parent="1" source="25" target="15" edge="1">
          <mxGeometry width="100" height="100" relative="1" as="geometry">
            <Array as="points">
              <mxPoint x="4691.9443359375" y="184.0974578857422" />
              <mxPoint x="4660" y="184.0974578857422" />
            </Array>
          </mxGeometry>
        </mxCell>
        <mxCell id="29" style="shape=filledEdge;strokeWidth=2;strokeColor=#000000;fillColor=none;startArrow=none;startFill=0;startSize=6;endArrow=none;endFill=0;endSize=6;rounded=0;gliffyId=2054;edgeStyle=orthogonalEdgeStyle;" parent="1" edge="1">
          <mxGeometry width="100" height="100" relative="1" as="geometry">
            <mxPoint x="4705" y="2341.816162109375" as="sourcePoint" />
            <mxPoint x="4705" y="2341.816162109375" as="targetPoint" />
          </mxGeometry>
        </mxCell>
        <mxCell id="30" style="shape=folder;fontStyle=1;spacingTop=10;tabWidth=40;tabHeight=14;tabPosition=left;shadow=1;strokeWidth=2;fillColor=#FFFFFF;strokeColor=#000000;opacity=100.0;gliffyId=2061;" parent="1" vertex="1">
          <mxGeometry x="4691.9443359375" y="330" width="90" height="50" as="geometry" />
        </mxCell>
        <mxCell id="31" style="shape=rect;shadow=1;strokeWidth=2;fillColor=#FFFFFF;strokeColor=#000000;opacity=100.0;gliffyId=2062;" parent="30" vertex="1">
          <mxGeometry width="36" height="10" as="geometry" />
        </mxCell>
        <mxCell id="32" value="&lt;div style=&#39;width: 87.0px;height:auto;word-break: break-word;&#39;&gt;&lt;div align=&quot;center&quot;&gt;&lt;span style=&quot;font-size: 12px; font-family: Arial; white-space: pre-wrap; font-weight: bold; text-decoration: none; line-height: 14px; color: rgb(0, 0, 0);&quot;&gt;Gallery&lt;/span&gt;&lt;/div&gt;&lt;/div&gt;" style="shape=rect;shadow=1;strokeWidth=2;fillColor=#FFFFFF;strokeColor=#000000;opacity=100.0;html=1;nl2Br=0;verticalAlign=middle;align=center;spacingLeft=0.0;spacingRight=0;whiteSpace=wrap;gliffyId=2063;" parent="30" vertex="1">
          <mxGeometry y="10" width="90" height="40" as="geometry" />
        </mxCell>
        <mxCell id="33" style="shape=filledEdge;strokeWidth=2;strokeColor=#000000;fillColor=none;startArrow=none;startFill=0;startSize=6;endArrow=none;endFill=0;endSize=6;rounded=0;gliffyId=2065;exitX=0.0;exitY=0.5;exitPerimeter=0;entryX=1.0;entryY=0.5;entryPerimeter=0;" parent="1" source="30" target="5" edge="1">
          <mxGeometry width="100" height="100" relative="1" as="geometry">
            <Array as="points">
              <mxPoint x="4691.9443359375" y="355" />
              <mxPoint x="4660" y="319.878662109375" />
            </Array>
          </mxGeometry>
        </mxCell>
        <mxCell id="34" value="&lt;div style=&#39;width: 133.0px;height:auto;word-break: break-word;&#39;&gt;&lt;div align=&quot;center&quot;&gt;&lt;span style=&quot;font-size: 12px; font-family: Arial; white-space: pre-wrap; font-weight: bold; text-decoration: none; line-height: 14px; color: rgb(0, 0, 0);&quot;&gt;GalleryManager.cs &lt;/span&gt;&lt;/div&gt;&lt;div align=&quot;center&quot;&gt;&lt;span style=&quot;font-size: 12px; font-family: Arial; white-space: pre-wrap; font-weight: bold; text-decoration: none; line-height: 14px; color: rgb(0, 0, 0);&quot;&gt;Gallery.cs &lt;/span&gt;&lt;/div&gt;&lt;div align=&quot;center&quot;&gt;&lt;span style=&quot;font-size: 12px; font-family: Arial; white-space: pre-wrap; font-weight: bold; text-decoration: none; line-height: 14px; color: rgb(0, 0, 0);&quot;&gt;GalleryContent.cs&lt;/span&gt;&lt;/div&gt;&lt;/div&gt;" style="shape=note;size=10;shadow=0;strokeWidth=1;fillColor=#FFFFFF;strokeColor=#000000;opacity=100.0;html=1;nl2Br=0;verticalAlign=middle;align=center;spacingLeft=2.0;spacingRight=0;whiteSpace=wrap;gliffyId=2067;" parent="1" vertex="1">
          <mxGeometry x="4800.7451171875" y="330" width="140" height="50" as="geometry" />
        </mxCell>
        <mxCell id="35" style="shape=filledEdge;strokeWidth=2;strokeColor=#000000;fillColor=none;startArrow=none;startFill=0;startSize=6;endArrow=none;endFill=0;endSize=6;rounded=0;gliffyId=2069;edgeStyle=orthogonalEdgeStyle;" parent="1" source="30" target="34" edge="1">
          <mxGeometry width="100" height="100" relative="1" as="geometry">
            <Array as="points">
              <mxPoint x="4781.9443359375" y="355" />
              <mxPoint x="4800.7451171875" y="355" />
            </Array>
          </mxGeometry>
        </mxCell>
        <mxCell id="36" style="shape=rect;fillColor=none;strokeColor=none;shadow=1;strokeWidth=2;opacity=100.0;gliffyId=2098;" parent="1" vertex="1">
          <mxGeometry x="1000" y="176" width="270" height="348" as="geometry" />
        </mxCell>
        <mxCell id="37" value="&lt;div style=&#39;width: 267.0px;height:auto;word-break: break-word;&#39;&gt;&lt;div align=&quot;center&quot;&gt;&lt;span style=&quot;font-size: 12px; font-family: Arial; white-space: pre-wrap; font-weight: bold; text-decoration: none; line-height: 14px; color: rgb(0, 0, 0);&quot;&gt;GalleryManager = MonoBehaviour &lt;/span&gt;&lt;/div&gt;&lt;div align=&quot;center&quot;&gt;&lt;span style=&quot;font-size: 12px; font-family: Arial; white-space: pre-wrap; font-weight: bold; text-decoration: none; line-height: 14px; color: rgb(0, 0, 0);&quot;&gt;갤러리 화면을 관리하는 컴포넌트&lt;/span&gt;&lt;/div&gt;&lt;/div&gt;" style="shape=rect;shadow=1;strokeWidth=2;fillColor=#ffffff;strokeColor=#000000;opacity=100.0;html=1;nl2Br=0;verticalAlign=top;align=center;spacingLeft=0.0;spacingRight=0;spacingTop=-5.0;spacingBottom=2;whiteSpace=wrap;gliffyId=2099;" parent="36" vertex="1">
          <mxGeometry width="270" height="32" as="geometry" />
        </mxCell>
        <mxCell id="38" value="&lt;div style=&#39;width: 267.0px;height:auto;word-break: break-word;&#39;&gt;&lt;div align=&quot;left&quot;&gt;&lt;span style=&quot;font-size: 12px; font-family: Arial; white-space: pre-wrap; font-weight: normal; text-decoration: none; line-height: 14px; color: rgb(0, 0, 0);&quot;&gt;galleryPos = Transform &lt;/span&gt;&lt;/div&gt;&lt;div align=&quot;left&quot;&gt;&lt;span style=&quot;font-size: 12px; font-family: Arial; white-space: pre-wrap; font-weight: normal; text-decoration: none; line-height: 14px; color: rgb(0, 0, 0);&quot;&gt;갤러리 화면을 표시하기 위한 위치 &lt;/span&gt;&lt;/div&gt;&lt;div align=&quot;left&quot;&gt;&lt;span style=&quot;font-size: 12px; font-family: Arial; white-space: pre-wrap; font-weight: normal; text-decoration: none; line-height: 14px; color: rgb(0, 0, 0);&quot;&gt; &lt;/span&gt;&lt;/div&gt;&lt;div align=&quot;left&quot;&gt;&lt;span style=&quot;font-size: 12px; font-family: Arial; white-space: pre-wrap; font-weight: normal; text-decoration: none; line-height: 14px; color: rgb(0, 0, 0);&quot;&gt;galleryList = ObjList &lt;/span&gt;&lt;/div&gt;&lt;div align=&quot;left&quot;&gt;&lt;span style=&quot;font-size: 12px; font-family: Arial; white-space: pre-wrap; font-weight: normal; text-decoration: none; line-height: 14px; color: rgb(0, 0, 0);&quot;&gt;갤러리 화면 리스트 &lt;/span&gt;&lt;/div&gt;&lt;div align=&quot;left&quot;&gt;&lt;span style=&quot;font-size: 12px; font-family: Arial; white-space: pre-wrap; font-weight: normal; text-decoration: none; line-height: 14px; color: rgb(0, 0, 0);&quot;&gt; &lt;/span&gt;&lt;/div&gt;&lt;div align=&quot;left&quot;&gt;&lt;span style=&quot;font-size: 12px; font-family: Arial; white-space: pre-wrap; font-weight: normal; text-decoration: none; line-height: 14px; color: rgb(0, 0, 0);&quot;&gt;manager = private static this &lt;/span&gt;&lt;/div&gt;&lt;div align=&quot;left&quot;&gt;&lt;span style=&quot;font-size: 12px; font-family: Arial; white-space: pre-wrap; font-weight: normal; text-decoration: none; line-height: 14px; color: rgb(0, 0, 0);&quot;&gt;자기 자신 컴포넌트를 전역으로 사용 &lt;/span&gt;&lt;/div&gt;&lt;div align=&quot;left&quot;&gt;&lt;span style=&quot;font-size: 12px; font-family: Arial; white-space: pre-wrap; font-weight: normal; text-decoration: none; line-height: 14px; color: rgb(0, 0, 0);&quot;&gt; &lt;/span&gt;&lt;/div&gt;&lt;div align=&quot;left&quot;&gt;&lt;span style=&quot;font-size: 12px; font-family: Arial; white-space: pre-wrap; font-weight: normal; text-decoration: none; line-height: 14px; color: rgb(0, 0, 0);&quot;&gt;gallery = Gallery &lt;/span&gt;&lt;/div&gt;&lt;div align=&quot;left&quot;&gt;&lt;span style=&quot;font-size: 12px; font-family: Arial; white-space: pre-wrap; font-weight: normal; text-decoration: none; line-height: 14px; color: rgb(0, 0, 0);&quot;&gt;현재 도감 화면 &lt;/span&gt;&lt;/div&gt;&lt;div align=&quot;left&quot;&gt;&lt;span style=&quot;font-size: 12px; font-family: Arial; white-space: pre-wrap; font-weight: normal; text-decoration: none; line-height: 14px; color: rgb(0, 0, 0);&quot;&gt; &lt;/span&gt;&lt;/div&gt;&lt;div align=&quot;left&quot;&gt;&lt;span style=&quot;font-size: 12px; font-family: Arial; white-space: pre-wrap; font-weight: normal; text-decoration: none; line-height: 14px; color: rgb(0, 0, 0);&quot;&gt;usable = public static bool  &lt;/span&gt;&lt;/div&gt;&lt;div align=&quot;left&quot;&gt;&lt;span style=&quot;font-size: 12px; font-family: Arial; white-space: pre-wrap; font-weight: normal; text-decoration: none; line-height: 14px; color: rgb(0, 0, 0);&quot;&gt;사용 가능한지 여부 &lt;/span&gt;&lt;/div&gt;&lt;div align=&quot;left&quot;&gt;&lt;span style=&quot;font-size: 12px; font-family: Arial; white-space: pre-wrap; font-weight: normal; text-decoration: none; line-height: 14px; color: rgb(0, 0, 0);&quot;&gt; &lt;/span&gt;&lt;/div&gt;&lt;div align=&quot;left&quot;&gt;&lt;span style=&quot;font-size: 12px; font-family: Arial; white-space: pre-wrap; font-weight: normal; text-decoration: none; line-height: 14px; color: rgb(0, 0, 0);&quot;&gt;unlocked = public static List&amp;lt;List&amp;lt;bool&amp;gt;&amp;gt; get set &lt;/span&gt;&lt;/div&gt;&lt;div align=&quot;left&quot;&gt;&lt;span style=&quot;font-size: 12px; font-family: Arial; white-space: pre-wrap; font-weight: normal; text-decoration: none; line-height: 14px; color: rgb(0, 0, 0);&quot;&gt;갤러리 내용 해금 정보&lt;/span&gt;&lt;/div&gt;&lt;/div&gt;" style="shape=rect;shadow=1;strokeWidth=2;fillColor=#ffffff;strokeColor=#000000;opacity=100.0;html=1;nl2Br=0;verticalAlign=top;align=left;spacingLeft=0.0;spacingRight=0;spacingTop=-5.0;spacingBottom=2;whiteSpace=wrap;gliffyId=2101;" parent="36" vertex="1">
          <mxGeometry y="32" width="270" height="242" as="geometry" />
        </mxCell>
        <mxCell id="39" value="&lt;div style=&#39;width: 267.0px;height:auto;word-break: break-word;&#39;&gt;&lt;div align=&quot;left&quot;&gt;&lt;span style=&quot;font-size: 12px; font-family: Arial; white-space: pre-wrap; font-weight: normal; text-decoration: none; line-height: 14px; color: rgb(0, 0, 0);&quot;&gt;Init() = public void &lt;/span&gt;&lt;/div&gt;&lt;div align=&quot;left&quot;&gt;&lt;span style=&quot;font-size: 12px; font-family: Arial; white-space: pre-wrap; font-weight: normal; text-decoration: none; line-height: 14px; color: rgb(0, 0, 0);&quot;&gt;초기화 함수 &lt;/span&gt;&lt;/div&gt;&lt;div align=&quot;left&quot;&gt;&lt;span style=&quot;font-size: 12px; font-family: Arial; white-space: pre-wrap; font-weight: normal; text-decoration: none; line-height: 14px; color: rgb(0, 0, 0);&quot;&gt; &lt;/span&gt;&lt;/div&gt;&lt;div align=&quot;left&quot;&gt;&lt;span style=&quot;font-size: 12px; font-family: Arial; white-space: pre-wrap; font-weight: normal; text-decoration: none; line-height: 14px; color: rgb(0, 0, 0);&quot;&gt;MakeTitle() = public static void &lt;/span&gt;&lt;/div&gt;&lt;div align=&quot;left&quot;&gt;&lt;span style=&quot;font-size: 12px; font-family: Arial; white-space: pre-wrap; font-weight: normal; text-decoration: none; line-height: 14px; color: rgb(0, 0, 0);&quot;&gt;타이틀화면 구성&lt;/span&gt;&lt;/div&gt;&lt;/div&gt;" style="shape=rect;shadow=1;strokeWidth=2;fillColor=#ffffff;strokeColor=#000000;opacity=100.0;html=1;nl2Br=0;verticalAlign=top;align=left;spacingLeft=0.0;spacingRight=0;spacingTop=-5.0;spacingBottom=2;whiteSpace=wrap;gliffyId=2103;" parent="36" vertex="1">
          <mxGeometry y="274" width="270" height="74" as="geometry" />
        </mxCell>
        <mxCell id="40" value="&lt;div style=&#39;width: 133.0px;height:auto;word-break: break-word;&#39;&gt;&lt;div align=&quot;center&quot;&gt;&lt;span style=&quot;font-size: 12px; font-family: Arial; white-space: pre-wrap; font-weight: bold; text-decoration: none; line-height: 14px; color: rgb(0, 0, 0);&quot;&gt;GalleryList = ObjList&lt;/span&gt;&lt;/div&gt;&lt;/div&gt;" style="shape=rect;shadow=1;strokeWidth=2;fillColor=#ffffff;strokeColor=#000000;opacity=100.0;html=1;nl2Br=0;verticalAlign=middle;align=center;spacingLeft=2.0;spacingRight=0;whiteSpace=wrap;gliffyId=2115;" parent="1" vertex="1">
          <mxGeometry x="782" y="333.5" width="140" height="35" as="geometry" />
        </mxCell>
        <mxCell id="41" style="shape=filledEdge;strokeWidth=2;strokeColor=#000000;fillColor=none;startArrow=none;startFill=0;startSize=6;endArrow=none;endFill=0;endSize=6;rounded=0;gliffyId=2114;edgeStyle=orthogonalEdgeStyle;" parent="1" edge="1">
          <mxGeometry width="100" height="100" relative="1" as="geometry">
            <mxPoint x="771" y="457.9025573730469" as="sourcePoint" />
            <mxPoint x="771" y="457.9025573730469" as="targetPoint" />
          </mxGeometry>
        </mxCell>
        <mxCell id="42" style="shape=rect;fillColor=none;strokeColor=none;shadow=1;strokeWidth=2;opacity=100.0;gliffyId=2107;" parent="1" vertex="1">
          <mxGeometry x="410" y="99" width="320" height="502" as="geometry" />
        </mxCell>
        <mxCell id="43" value="&lt;div style=&#39;width: 317.0px;height:auto;word-break: break-word;&#39;&gt;&lt;div align=&quot;center&quot;&gt;&lt;span style=&quot;font-size: 12px; font-family: Arial; white-space: pre-wrap; font-weight: bold; text-decoration: none; line-height: 14px; color: rgb(0, 0, 0);&quot;&gt;Gallery = public abstract class : MonoBehaviour &lt;/span&gt;&lt;/div&gt;&lt;div align=&quot;center&quot;&gt;&lt;span style=&quot;font-size: 12px; font-family: Arial; white-space: pre-wrap; font-weight: bold; text-decoration: none; line-height: 14px; color: rgb(0, 0, 0);&quot;&gt;도감화면을 구성하는 추상 클래스&lt;/span&gt;&lt;/div&gt;&lt;/div&gt;" style="shape=rect;shadow=1;strokeWidth=2;fillColor=#ffffff;strokeColor=#000000;opacity=100.0;html=1;nl2Br=0;verticalAlign=top;align=center;spacingLeft=0.0;spacingRight=0;spacingTop=-5.0;spacingBottom=2;whiteSpace=wrap;gliffyId=2108;" parent="42" vertex="1">
          <mxGeometry width="320" height="32" as="geometry" />
        </mxCell>
        <mxCell id="44" value="&lt;div style=&#39;width: 317.0px;height:auto;word-break: break-word;&#39;&gt;&lt;div align=&quot;left&quot;&gt;&lt;span style=&quot;font-size: 12px; font-family: Arial; white-space: pre-wrap; font-weight: normal; text-decoration: none; line-height: 14px; color: rgb(0, 0, 0);&quot;&gt;tagPos, contentPos = RectTransform  &lt;/span&gt;&lt;/div&gt;&lt;div align=&quot;left&quot;&gt;&lt;span style=&quot;font-size: 12px; font-family: Arial; white-space: pre-wrap; font-weight: normal; text-decoration: none; line-height: 14px; color: rgb(0, 0, 0);&quot;&gt;각 요소를 생성하는 컴포넌트 &lt;/span&gt;&lt;/div&gt;&lt;div align=&quot;left&quot;&gt;&lt;span style=&quot;font-size: 12px; font-family: Arial; white-space: pre-wrap; font-weight: normal; text-decoration: none; line-height: 14px; color: rgb(0, 0, 0);&quot;&gt; &lt;/span&gt;&lt;/div&gt;&lt;div align=&quot;left&quot;&gt;&lt;span style=&quot;font-size: 12px; font-family: Arial; white-space: pre-wrap; font-weight: normal; text-decoration: none; line-height: 14px; color: rgb(0, 0, 0);&quot;&gt;tagBtn, contentBtn = GameObject  &lt;/span&gt;&lt;/div&gt;&lt;div align=&quot;left&quot;&gt;&lt;span style=&quot;font-size: 12px; font-family: Arial; white-space: pre-wrap; font-weight: normal; text-decoration: none; line-height: 14px; color: rgb(0, 0, 0);&quot;&gt;각 버튼 프리팹 &lt;/span&gt;&lt;/div&gt;&lt;div align=&quot;left&quot;&gt;&lt;span style=&quot;font-size: 12px; font-family: Arial; white-space: pre-wrap; font-weight: normal; text-decoration: none; line-height: 14px; color: rgb(0, 0, 0);&quot;&gt; &lt;/span&gt;&lt;/div&gt;&lt;div align=&quot;left&quot;&gt;&lt;span style=&quot;font-size: 12px; font-family: Arial; white-space: pre-wrap; font-weight: normal; text-decoration: none; line-height: 14px; color: rgb(0, 0, 0);&quot;&gt;contents = List&amp;lt;GameObject&amp;gt;  &lt;/span&gt;&lt;/div&gt;&lt;div align=&quot;left&quot;&gt;&lt;span style=&quot;font-size: 12px; font-family: Arial; white-space: pre-wrap; font-weight: normal; text-decoration: none; line-height: 14px; color: rgb(0, 0, 0);&quot;&gt;tagIndex = int &lt;/span&gt;&lt;/div&gt;&lt;div align=&quot;left&quot;&gt;&lt;span style=&quot;font-size: 12px; font-family: Arial; white-space: pre-wrap; font-weight: normal; text-decoration: none; line-height: 14px; color: rgb(0, 0, 0);&quot;&gt;tags = Dictionary&amp;lt;int, Button&amp;gt;  &lt;/span&gt;&lt;/div&gt;&lt;div align=&quot;left&quot;&gt;&lt;span style=&quot;font-size: 12px; font-family: Arial; white-space: pre-wrap; font-weight: normal; text-decoration: none; line-height: 14px; color: rgb(0, 0, 0);&quot;&gt;내부요소 관리용 &lt;/span&gt;&lt;/div&gt;&lt;div align=&quot;left&quot;&gt;&lt;span style=&quot;font-size: 12px; font-family: Arial; white-space: pre-wrap; font-weight: normal; text-decoration: none; line-height: 14px; color: rgb(0, 0, 0);&quot;&gt; &lt;/span&gt;&lt;/div&gt;&lt;div align=&quot;left&quot;&gt;&lt;span style=&quot;font-size: 12px; font-family: Arial; white-space: pre-wrap; font-weight: normal; text-decoration: none; line-height: 14px; color: rgb(0, 0, 0);&quot;&gt;group = GridLayoutGroup  &lt;/span&gt;&lt;/div&gt;&lt;div align=&quot;left&quot;&gt;&lt;span style=&quot;font-size: 12px; font-family: Arial; white-space: pre-wrap; font-weight: normal; text-decoration: none; line-height: 14px; color: rgb(0, 0, 0);&quot;&gt;내부요소 배치 그룹 &lt;/span&gt;&lt;/div&gt;&lt;div align=&quot;left&quot;&gt;&lt;span style=&quot;font-size: 12px; font-family: Arial; white-space: pre-wrap; font-weight: normal; text-decoration: none; line-height: 14px; color: rgb(0, 0, 0);&quot;&gt; &lt;/span&gt;&lt;/div&gt;&lt;div align=&quot;left&quot;&gt;&lt;span style=&quot;font-size: 12px; font-family: Arial; white-space: pre-wrap; font-weight: normal; text-decoration: none; line-height: 14px; color: rgb(0, 0, 0);&quot;&gt;line = int  &lt;/span&gt;&lt;/div&gt;&lt;div align=&quot;left&quot;&gt;&lt;span style=&quot;font-size: 12px; font-family: Arial; white-space: pre-wrap; font-weight: normal; text-decoration: none; line-height: 14px; color: rgb(0, 0, 0);&quot;&gt;내부요소 배치 개수 &lt;/span&gt;&lt;/div&gt;&lt;div align=&quot;left&quot;&gt;&lt;span style=&quot;font-size: 12px; font-family: Arial; white-space: pre-wrap; font-weight: normal; text-decoration: none; line-height: 14px; color: rgb(0, 0, 0);&quot;&gt; &lt;/span&gt;&lt;/div&gt;&lt;div align=&quot;left&quot;&gt;&lt;span style=&quot;font-size: 12px; font-family: Arial; white-space: pre-wrap; font-weight: normal; text-decoration: none; line-height: 14px; color: rgb(0, 0, 0);&quot;&gt;showLocked = public bool &lt;/span&gt;&lt;/div&gt;&lt;div align=&quot;left&quot;&gt;&lt;span style=&quot;font-size: 12px; font-family: Arial; white-space: pre-wrap; font-weight: normal; text-decoration: none; line-height: 14px; color: rgb(0, 0, 0);&quot;&gt;잠금 이미지를 보일지 안보이게 할지&lt;/span&gt;&lt;/div&gt;&lt;/div&gt;" style="shape=rect;shadow=1;strokeWidth=2;fillColor=#ffffff;strokeColor=#000000;opacity=100.0;html=1;nl2Br=0;verticalAlign=top;align=left;spacingLeft=0.0;spacingRight=0;spacingTop=-5.0;spacingBottom=2;whiteSpace=wrap;gliffyId=2110;" parent="42" vertex="1">
          <mxGeometry y="32" width="320" height="270" as="geometry" />
        </mxCell>
        <mxCell id="45" value="&lt;div style=&#39;width: 317.0px;height:auto;word-break: break-word;&#39;&gt;&lt;div align=&quot;left&quot;&gt;&lt;span style=&quot;font-size: 12px; font-family: Arial; white-space: pre-wrap; font-weight: normal; text-decoration: none; line-height: 14px; color: rgb(0, 0, 0);&quot;&gt;Init(RectTransform) = public virtual void &lt;/span&gt;&lt;/div&gt;&lt;div align=&quot;left&quot;&gt;&lt;span style=&quot;font-size: 12px; font-family: Arial; white-space: pre-wrap; font-weight: normal; text-decoration: none; line-height: 14px; color: rgb(0, 0, 0);&quot;&gt;초기화 함수, 도감 정보 불러오기 &lt;/span&gt;&lt;/div&gt;&lt;div align=&quot;left&quot;&gt;&lt;span style=&quot;font-size: 12px; font-family: Arial; white-space: pre-wrap; font-weight: normal; text-decoration: none; line-height: 14px; color: rgb(0, 0, 0);&quot;&gt; &lt;/span&gt;&lt;/div&gt;&lt;div align=&quot;left&quot;&gt;&lt;span style=&quot;font-size: 12px; font-family: Arial; white-space: pre-wrap; font-weight: normal; text-decoration: none; line-height: 14px; color: rgb(0, 0, 0);&quot;&gt;Exit() = public virtual void &lt;/span&gt;&lt;/div&gt;&lt;div align=&quot;left&quot;&gt;&lt;span style=&quot;font-size: 12px; font-family: Arial; white-space: pre-wrap; font-weight: normal; text-decoration: none; line-height: 14px; color: rgb(0, 0, 0);&quot;&gt;갤러리 종료 &lt;/span&gt;&lt;/div&gt;&lt;div align=&quot;left&quot;&gt;&lt;span style=&quot;font-size: 12px; font-family: Arial; white-space: pre-wrap; font-weight: normal; text-decoration: none; line-height: 14px; color: rgb(0, 0, 0);&quot;&gt; &lt;/span&gt;&lt;/div&gt;&lt;div align=&quot;left&quot;&gt;&lt;span style=&quot;font-size: 12px; font-family: Arial; white-space: pre-wrap; font-weight: normal; text-decoration: none; line-height: 14px; color: rgb(0, 0, 0);&quot;&gt;MakeContents(index) = public virtual void  &lt;/span&gt;&lt;/div&gt;&lt;div align=&quot;left&quot;&gt;&lt;span style=&quot;font-size: 12px; font-family: Arial; white-space: pre-wrap; font-weight: normal; text-decoration: none; line-height: 14px; color: rgb(0, 0, 0);&quot;&gt;갤러리 내용 채우기 &lt;/span&gt;&lt;/div&gt;&lt;div align=&quot;left&quot;&gt;&lt;span style=&quot;font-size: 12px; font-family: Arial; white-space: pre-wrap; font-weight: normal; text-decoration: none; line-height: 14px; color: rgb(0, 0, 0);&quot;&gt; &lt;/span&gt;&lt;/div&gt;&lt;div align=&quot;left&quot;&gt;&lt;span style=&quot;font-size: 12px; font-family: Arial; white-space: pre-wrap; font-weight: normal; text-decoration: none; line-height: 14px; color: rgb(0, 0, 0);&quot;&gt;GalleryContentsClick(index) = public virtual void  &lt;/span&gt;&lt;/div&gt;&lt;div align=&quot;left&quot;&gt;&lt;span style=&quot;font-size: 12px; font-family: Arial; white-space: pre-wrap; font-weight: normal; text-decoration: none; line-height: 14px; color: rgb(0, 0, 0);&quot;&gt;갤러리 내용 보기 &lt;/span&gt;&lt;/div&gt;&lt;div align=&quot;left&quot;&gt;&lt;span style=&quot;font-size: 12px; font-family: Arial; white-space: pre-wrap; font-weight: normal; text-decoration: none; line-height: 14px; color: rgb(0, 0, 0);&quot;&gt; &lt;/span&gt;&lt;/div&gt;&lt;div align=&quot;left&quot;&gt;&lt;span style=&quot;font-size: 12px; font-family: Arial; white-space: pre-wrap; font-weight: normal; text-decoration: none; line-height: 14px; color: rgb(0, 0, 0);&quot;&gt;HandleLayoutGroup() = public virtual IEnumerator  &lt;/span&gt;&lt;/div&gt;&lt;div align=&quot;left&quot;&gt;&lt;span style=&quot;font-size: 12px; font-family: Arial; white-space: pre-wrap; font-weight: normal; text-decoration: none; line-height: 14px; color: rgb(0, 0, 0);&quot;&gt;내부요소 정렬&lt;/span&gt;&lt;/div&gt;&lt;/div&gt;" style="shape=rect;shadow=1;strokeWidth=2;fillColor=#ffffff;strokeColor=#000000;opacity=100.0;html=1;nl2Br=0;verticalAlign=top;align=left;spacingLeft=0.0;spacingRight=0;spacingTop=-5.0;spacingBottom=2;whiteSpace=wrap;gliffyId=2112;" parent="42" vertex="1">
          <mxGeometry y="302" width="320" height="200" as="geometry" />
        </mxCell>
        <mxCell id="46" style="shape=filledEdge;strokeWidth=2;strokeColor=#000000;fillColor=none;startArrow=none;startFill=0;startSize=6;endArrow=none;endFill=0;endSize=6;rounded=0;gliffyId=2106;exitX=1.0;exitY=0.5;exitPerimeter=0;entryX=0.0;entryY=0.5;entryPerimeter=0;" parent="1" source="42" target="40" edge="1">
          <mxGeometry width="100" height="100" relative="1" as="geometry">
            <Array as="points">
              <mxPoint x="730" y="350" />
              <mxPoint x="782" y="351" />
            </Array>
          </mxGeometry>
        </mxCell>
        <mxCell id="47" style="shape=filledEdge;strokeWidth=2;strokeColor=#000000;fillColor=none;startArrow=none;startFill=0;startSize=6;endArrow=none;endFill=0;endSize=6;rounded=0;gliffyId=2118;exitX=1.0;exitY=0.5;exitPerimeter=0;entryX=0.0;entryY=0.5;entryPerimeter=0;" parent="1" source="40" target="36" edge="1">
          <mxGeometry width="100" height="100" relative="1" as="geometry">
            <Array as="points">
              <mxPoint x="922" y="351" />
              <mxPoint x="1000" y="350" />
            </Array>
          </mxGeometry>
        </mxCell>
        <mxCell id="48" style="shape=folder;fontStyle=1;spacingTop=10;tabWidth=40;tabHeight=14;tabPosition=left;shadow=1;strokeWidth=2;fillColor=#FFFFFF;strokeColor=#000000;opacity=100.0;gliffyId=2156;" parent="1" vertex="1">
          <mxGeometry x="4810" y="160.8162078857422" width="90" height="46.5625" as="geometry" />
        </mxCell>
        <mxCell id="49" style="shape=rect;shadow=1;strokeWidth=2;fillColor=#FFFFFF;strokeColor=#000000;opacity=100.0;gliffyId=2157;" parent="48" vertex="1">
          <mxGeometry width="36" height="10" as="geometry" />
        </mxCell>
        <mxCell id="50" value="&lt;div style=&#39;width: 87.0px;height:auto;word-break: break-word;&#39;&gt;&lt;div align=&quot;center&quot;&gt;&lt;span style=&quot;font-size: 12px; font-family: Arial; white-space: pre-wrap; font-weight: bold; text-decoration: none; line-height: 14px; color: rgb(0, 0, 0);&quot;&gt;Contents&lt;/span&gt;&lt;/div&gt;&lt;/div&gt;" style="shape=rect;shadow=1;strokeWidth=2;fillColor=#FFFFFF;strokeColor=#000000;opacity=100.0;html=1;nl2Br=0;verticalAlign=middle;align=center;spacingLeft=0.0;spacingRight=0;whiteSpace=wrap;gliffyId=2158;" parent="48" vertex="1">
          <mxGeometry y="10" width="90" height="36.5625" as="geometry" />
        </mxCell>
        <mxCell id="51" style="shape=filledEdge;strokeWidth=2;strokeColor=#000000;fillColor=none;startArrow=none;startFill=0;startSize=6;endArrow=none;endFill=0;endSize=6;rounded=0;gliffyId=2160;edgeStyle=orthogonalEdgeStyle;" parent="1" source="25" target="48" edge="1">
          <mxGeometry width="100" height="100" relative="1" as="geometry">
            <Array as="points">
              <mxPoint x="4781.9443359375" y="184.0974578857422" />
              <mxPoint x="4810" y="184.0974578857422" />
            </Array>
          </mxGeometry>
        </mxCell>
        <mxCell id="52" style="shape=rect;fillColor=none;strokeColor=none;shadow=1;strokeWidth=2;opacity=100.0;gliffyId=2177;" parent="1" vertex="1">
          <mxGeometry x="140" y="311" width="200" height="78" as="geometry" />
        </mxCell>
        <mxCell id="53" value="&lt;div style=&#39;width: 197.0px;height:auto;word-break: break-word;&#39;&gt;&lt;div align=&quot;center&quot;&gt;&lt;span style=&quot;font-size: 12px; font-family: Arial; white-space: pre-wrap; font-weight: normal; text-decoration: underline; line-height: 14px; color: rgb(0, 0, 0);&quot;&gt;GalleryContent = MonoBehaviour &lt;/span&gt;&lt;/div&gt;&lt;div align=&quot;center&quot;&gt;&lt;span style=&quot;font-size: 12px; font-family: Arial; white-space: pre-wrap; font-weight: normal; text-decoration: underline; line-height: 14px; color: rgb(0, 0, 0);&quot;&gt;갤러리 내용&lt;/span&gt;&lt;/div&gt;&lt;/div&gt;" style="shape=rect;shadow=1;strokeWidth=2;fillColor=#FFFFFF;strokeColor=#000000;opacity=100.0;html=1;nl2Br=0;verticalAlign=top;align=center;spacingLeft=0.0;spacingRight=0;spacingTop=-5.0;spacingBottom=2;whiteSpace=wrap;gliffyId=2178;" parent="52" vertex="1">
          <mxGeometry width="200" height="32" as="geometry" />
        </mxCell>
        <mxCell id="54" value="&lt;div style=&#39;width: 197.0px;height:auto;word-break: break-word;&#39;&gt;&lt;div align=&quot;left&quot;&gt;&lt;span style=&quot;font-size: 12px; font-family: Arial; white-space: pre-wrap; font-weight: normal; text-decoration: none; line-height: 14px; color: rgb(0, 0, 0);&quot;&gt;button  = public Button &lt;/span&gt;&lt;/div&gt;&lt;div align=&quot;left&quot;&gt;&lt;span style=&quot;font-size: 12px; font-family: Arial; white-space: pre-wrap; font-weight: normal; text-decoration: none; line-height: 14px; color: rgb(0, 0, 0);&quot;&gt;image = public Image &lt;/span&gt;&lt;/div&gt;&lt;div align=&quot;left&quot;&gt;&lt;span style=&quot;font-size: 12px; font-family: Arial; white-space: pre-wrap; font-weight: normal; text-decoration: none; line-height: 14px; color: rgb(0, 0, 0);&quot;&gt;icon = public Image&lt;/span&gt;&lt;/div&gt;&lt;/div&gt;" style="shape=rect;shadow=1;strokeWidth=2;fillColor=#FFFFFF;strokeColor=#000000;opacity=100.0;html=1;nl2Br=0;verticalAlign=top;align=left;spacingLeft=0.0;spacingRight=0;spacingTop=-5.0;spacingBottom=2;whiteSpace=wrap;gliffyId=2180;" parent="52" vertex="1">
          <mxGeometry y="32" width="200" height="46" as="geometry" />
        </mxCell>
        <mxCell id="55" style="shape=filledEdge;strokeWidth=2;strokeColor=#000000;fillColor=none;startArrow=none;startFill=0;startSize=6;endArrow=none;endFill=0;endSize=6;rounded=0;gliffyId=2182;edgeStyle=orthogonalEdgeStyle;" parent="1" source="52" target="42" edge="1">
          <mxGeometry width="100" height="100" relative="1" as="geometry">
            <Array as="points">
              <mxPoint x="340" y="350" />
              <mxPoint x="410" y="350" />
            </Array>
          </mxGeometry>
        </mxCell>
      </root>
    </mxGraphModel>
  </diagram>
</mxfile>
